<svg width="14" height="18" viewBox="0 0 14 18" fill="none" xmlns="http://www.w3.org/2000/svg">
<path d="M7 0C5.14412 0.00203808 3.36486 0.72382 2.05255 2.00699C0.740252 3.29017 0.00208434 5.02994 0 6.84462C0 9.62953 2.06763 11.9422 4.25775 14.39C4.95075 15.1651 5.66825 15.9668 6.307 16.7779C6.38874 16.8816 6.49372 16.9655 6.61387 17.0233C6.73401 17.0811 6.86611 17.1111 7 17.1111C7.13389 17.1111 7.26599 17.0811 7.38613 17.0233C7.50628 16.9655 7.61126 16.8816 7.693 16.7779C8.33175 15.9668 9.04925 15.1651 9.74225 14.39C11.9324 11.9422 14 9.62953 14 6.84462C13.9979 5.02994 13.2597 3.29017 11.9474 2.00699C10.6351 0.72382 8.85588 0.00203808 7 0ZM7 9.41136C6.48082 9.41136 5.97331 9.26082 5.54163 8.97878C5.10995 8.69675 4.7735 8.29588 4.57482 7.82687C4.37614 7.35786 4.32415 6.84177 4.42544 6.34388C4.52673 5.84598 4.77673 5.38863 5.14384 5.02967C5.51096 4.6707 5.97869 4.42625 6.48789 4.32721C6.99709 4.22817 7.52489 4.279 8.00454 4.47327C8.4842 4.66754 8.89417 4.99652 9.18261 5.41862C9.47105 5.84072 9.625 6.33697 9.625 6.84462C9.625 7.52536 9.34844 8.17822 8.85616 8.65958C8.36387 9.14093 7.69619 9.41136 7 9.41136Z" fill="url(#paint0_linear_11709_8)"/>
<defs>
<linearGradient id="paint0_linear_11709_8" x1="3.47694e-08" y1="11.7639" x2="14.7198" y2="6.74576" gradientUnits="userSpaceOnUse">
<stop stop-color="#9F7437"/>
<stop offset="1" stop-color="#E3D293"/>
</linearGradient>
</defs>
</svg>
